<svg width="22" height="21" viewBox="0 0 22 21" fill="none" xmlns="http://www.w3.org/2000/svg">
<g clip-path="url(#clip0_23192_37)">
<path d="M19.1662 1.61832H2.55423C1.14296 1.61832 0 2.76128 0 4.17044V18.4458C0 19.8549 1.14296 21 2.55423 21H19.1683C20.5775 21 21.7225 19.8571 21.7225 18.4458V4.17044C21.7225 2.76128 20.5796 1.61621 19.1683 1.61621L19.1662 1.61832ZM16.9204 2.80565C17.7739 2.80565 18.4669 3.49861 18.4669 4.35213C18.4669 5.20565 17.7739 5.89861 16.9204 5.89861C16.0669 5.89861 15.3739 5.20565 15.3739 4.35213C15.3739 3.49861 16.0669 2.80565 16.9204 2.80565ZM10.6986 2.80565C11.5521 2.80565 12.2451 3.49861 12.2451 4.35213C12.2451 5.20565 11.5521 5.89861 10.6986 5.89861C9.84507 5.89861 9.15211 5.20565 9.15211 4.35213C9.15211 3.49861 9.84507 2.80565 10.6986 2.80565ZM4.44084 2.80565C5.29437 2.80565 5.98732 3.49861 5.98732 4.35213C5.98732 5.20565 5.29437 5.89861 4.44084 5.89861C3.58732 5.89861 2.89437 5.20565 2.89437 4.35213C2.89437 3.49861 3.58732 2.80565 4.44084 2.80565ZM21.019 18.3803C21.019 19.4303 20.1676 20.2817 19.1176 20.2817H2.60282C1.55282 20.2817 0.701408 19.4303 0.701408 18.3803V7.26339H21.019V18.3803Z" fill="#00000A"/>
<path d="M5.14221 0.629577C5.14221 0.281871 4.86034 0 4.51263 0C4.16493 0 3.88306 0.281871 3.88306 0.629577V4.47676C3.88306 4.82447 4.16493 5.10634 4.51263 5.10634C4.86034 5.10634 5.14221 4.82447 5.14221 4.47676V0.629577Z" fill="#00000A"/>
<path d="M11.3282 0.629577C11.3282 0.281871 11.0464 0 10.6987 0C10.351 0 10.0691 0.281871 10.0691 0.629577V4.47676C10.0691 4.82447 10.351 5.10634 10.6987 5.10634C11.0464 5.10634 11.3282 4.82447 11.3282 4.47676V0.629577Z" fill="#00000A"/>
<path d="M17.5499 0.629577C17.5499 0.281871 17.2681 0 16.9203 0C16.5726 0 16.2908 0.281871 16.2908 0.629577V4.47676C16.2908 4.82447 16.5726 5.10634 16.9203 5.10634C17.2681 5.10634 17.5499 4.82447 17.5499 4.47676V0.629577Z" fill="#00000A"/>
<path d="M8.80974 19.1112C9.69301 19.1112 10.409 18.3952 10.409 17.5119C10.409 16.6286 9.69301 15.9126 8.80974 15.9126C7.92648 15.9126 7.21045 16.6286 7.21045 17.5119C7.21045 18.3952 7.92648 19.1112 8.80974 19.1112Z" fill="#00000A"/>
<path d="M4.66692 19.1112C5.55019 19.1112 6.26622 18.3952 6.26622 17.5119C6.26622 16.6286 5.55019 15.9126 4.66692 15.9126C3.78366 15.9126 3.06763 16.6286 3.06763 17.5119C3.06763 18.3952 3.78366 19.1112 4.66692 19.1112Z" fill="#00000A"/>
<path d="M12.9274 19.1112C13.8107 19.1112 14.5267 18.3952 14.5267 17.5119C14.5267 16.6286 13.8107 15.9126 12.9274 15.9126C12.0442 15.9126 11.3281 16.6286 11.3281 17.5119C11.3281 18.3952 12.0442 19.1112 12.9274 19.1112Z" fill="#00000A"/>
<path d="M17.0724 19.1112C17.9557 19.1112 18.6717 18.3952 18.6717 17.5119C18.6717 16.6286 17.9557 15.9126 17.0724 15.9126C16.1892 15.9126 15.4731 16.6286 15.4731 17.5119C15.4731 18.3952 16.1892 19.1112 17.0724 19.1112Z" fill="#00000A"/>
<path d="M8.80144 15.3719C9.68471 15.3719 10.4007 14.6559 10.4007 13.7726C10.4007 12.8894 9.68471 12.1733 8.80144 12.1733C7.91818 12.1733 7.20215 12.8894 7.20215 13.7726C7.20215 14.6559 7.91818 15.3719 8.80144 15.3719Z" fill="#00000A"/>
<path d="M4.65642 15.3719C5.53969 15.3719 6.25572 14.6559 6.25572 13.7726C6.25572 12.8894 5.53969 12.1733 4.65642 12.1733C3.77316 12.1733 3.05713 12.8894 3.05713 13.7726C3.05713 14.6559 3.77316 15.3719 4.65642 15.3719Z" fill="#00000A"/>
<path d="M12.9191 15.3719C13.8024 15.3719 14.5184 14.6559 14.5184 13.7726C14.5184 12.8894 13.8024 12.1733 12.9191 12.1733C12.0359 12.1733 11.3198 12.8894 11.3198 13.7726C11.3198 14.6559 12.0359 15.3719 12.9191 15.3719Z" fill="#00000A"/>
<path d="M17.0641 15.3719C17.9474 15.3719 18.6634 14.6559 18.6634 13.7726C18.6634 12.8894 17.9474 12.1733 17.0641 12.1733C16.1809 12.1733 15.4648 12.8894 15.4648 13.7726C15.4648 14.6559 16.1809 15.3719 17.0641 15.3719Z" fill="#00000A"/>
<path d="M8.80144 11.6322C9.68471 11.6322 10.4007 10.9162 10.4007 10.0329C10.4007 9.14962 9.68471 8.43359 8.80144 8.43359C7.91818 8.43359 7.20215 9.14962 7.20215 10.0329C7.20215 10.9162 7.91818 11.6322 8.80144 11.6322Z" fill="#00000A"/>
<path d="M12.9191 11.6322C13.8024 11.6322 14.5184 10.9162 14.5184 10.0329C14.5184 9.14962 13.8024 8.43359 12.9191 8.43359C12.0359 8.43359 11.3198 9.14962 11.3198 10.0329C11.3198 10.9162 12.0359 11.6322 12.9191 11.6322Z" fill="#00000A"/>
<path d="M17.0641 11.6322C17.9474 11.6322 18.6634 10.9162 18.6634 10.0329C18.6634 9.14962 17.9474 8.43359 17.0641 8.43359C16.1809 8.43359 15.4648 9.14962 15.4648 10.0329C15.4648 10.9162 16.1809 11.6322 17.0641 11.6322Z" fill="#00000A"/>
</g>
<defs>
<clipPath id="clip0_23192_37">
<rect width="21.7204" height="21" fill="white"/>
</clipPath>
</defs>
</svg>
